<?xml version="1.0" encoding="UTF-8"?>
<svg width="98px" height="110px" viewBox="0 0 98 110" version="1.1" xmlns="http://www.w3.org/2000/svg" xmlns:xlink="http://www.w3.org/1999/xlink">
    <!-- Generator: Sketch 57.1 (83088) - https://sketch.com -->
    <title>sdv-logologo</title>
    <desc>Created with Sketch.</desc>
    <defs>
        <polygon id="path-1" points="0.068 0.133 96.734 0.133 96.734 36.127 0.068 36.127"></polygon>
    </defs>
    <g id="Page-1" stroke="none" stroke-width="1" fill="none" fill-rule="evenodd">
        <g id="logo" transform="translate(-7.000000, 0.000000)">
            <path d="M103.5,36.218 C103.555,36.666 103.434,37.1 103.367,37.533 C103.138,39.018 102.897,40.502 102.625,41.979 C102.167819,44.4473938 101.623815,46.8989144 100.994,49.329 C99.9759545,53.2846571 98.7339525,57.1792682 97.274,60.994 C96.3364972,63.4374874 95.3074368,65.8448552 94.189,68.211 C91.9657597,72.9135499 89.3708596,77.4312174 86.429,81.721 C82.652584,87.2197076 78.3219039,92.3163993 73.505,96.931 C71.62727,98.726394 69.6818608,100.449642 67.673,102.097 C64.6114412,104.605761 61.4150039,106.945253 58.098,109.105 C57.743,109.337 57.374,109.548 57.03,109.795 C56.784,109.972 56.59,109.995 56.318,109.819 C55.548,109.317 54.751,108.86 53.974,108.37 C50.3853813,106.109796 46.9367516,103.63461 43.647,100.958 C42.1551474,99.7392613 40.6979034,98.4787619 39.277,97.178 C38.2597877,96.2477751 37.2641891,95.2941876 36.291,94.318 C34.9529221,92.9806208 33.6553365,91.6033325 32.4,90.188 C30.4413715,87.9787059 28.5873384,85.6788506 26.844,83.296 C24.7062597,80.3672714 22.7415743,77.3160656 20.96,74.158 C18.866441,70.4447268 17.0223649,66.5962203 15.44,62.638 C14.0486008,59.1566165 12.8511001,55.6008371 11.853,51.987 C11.0303585,49.0046769 10.3353927,45.9885984 9.77,42.947 C9.50446417,41.5396794 9.27439132,40.1258984 9.08,38.707 C8.993,38.059 8.892,37.413 8.806,36.765 C8.78,36.573 8.788,36.377 8.78,36.183 L16.293,36.161 C16.324,36.261 16.371,36.36 16.385,36.463 C16.612,38.145 16.91,39.814 17.238,41.479 C17.9676636,45.1910126 18.9227656,48.8551314 20.098,52.451 C20.504,53.694 20.954,54.922 21.375,56.161 C21.7929497,57.3816998 22.252552,58.587739 22.753,59.777 C24.416,63.748 26.418,67.547 28.602,71.25 C30.4757856,74.4144575 32.5416543,77.4611629 34.788,80.373 C36.8875907,83.1068085 39.1328399,85.7255982 41.514,88.218 C44.36133,91.1934777 47.3854844,93.9945606 50.57,96.606 C52.3346195,98.0471238 54.1386383,99.4393194 55.98,100.781 C56.137,100.896 56.3,101.002 56.458,101.115 C56.591,101.211 56.719,101.199 56.848,101.107 C56.976,101.014 57.108,100.925 57.235,100.829 C58.154,100.141 59.077,99.459 59.988,98.76 C62.7448576,96.6345894 65.3815821,94.357752 67.886,91.94 C70.1179778,89.7847609 72.239362,87.5178569 74.242,85.148 C76.0542968,82.9991234 77.7664517,80.7677494 79.373,78.461 C82.3316164,74.2047412 84.919129,69.7021883 87.107,65.003 C88.4959104,62.0215202 89.7285803,58.9697192 90.8,55.86 C92.0355497,52.2837851 93.0563678,48.6369567 93.857,44.939 C94.155,43.557 94.441,42.171 94.684,40.779 C94.948,39.265 95.154,37.74 95.387,36.22 C95.562,36.22 95.737,36.217 95.913,36.217 L103.5,36.218" id="Path" fill="#39ACDD" fill-rule="nonzero"></path>
            <g id="Group" transform="translate(7.840000, 0.093000)">
                <g id="Clipped">
                    <mask id="mask-2" fill="white">
                        <use xlink:href="#path-1"></use>
                    </mask>
                    <g id="a"></g>
                    <path d="M8.453,36.068 L0.941,36.09 C0.792,35.612 0.786,35.113 0.736,34.623 C0.592828487,33.1971143 0.461490633,31.7700652 0.342,30.342 C0.29196198,29.7247094 0.252289725,29.1066223 0.223,28.488 C0.055,25.304 0.027,22.118 0.122,18.933 C0.172218857,17.2345136 0.275602836,15.5380159 0.432,13.846 C0.518,12.93 0.643,12.019 0.736,11.103 C0.766,10.807 0.902,10.639 1.17,10.509 C3.04420771,9.60064492 4.95370872,8.7669896 6.894,8.01 C11.481,6.205 16.174,4.74 20.956,3.553 C23.576,2.902 26.216,2.344 28.875,1.877 C30.6110045,1.56374304 32.3557399,1.30096562 34.107,1.089 C35.544,0.923 36.98,0.74 38.419,0.602 C39.614,0.488 40.813,0.427 42.01,0.342 C45.183,0.117 48.361,0.1 51.54,0.167 C53.304,0.204 55.067,0.287 56.827,0.441 C57.829,0.529 58.834,0.59 59.833,0.698 C61.131,0.84 62.425,1.014 63.72,1.179 C64.875,1.326 66.022,1.523 67.17,1.719 C69.623,2.135 72.056,2.651 74.47,3.253 C81.7688939,5.0710029 88.8534878,7.66093252 95.604,10.979 C96.366,11.353 96.228,11.169 96.315,11.981 C96.478,13.477 96.565,14.978 96.639,16.481 C96.756,18.87 96.752,21.259 96.694,23.648 C96.642,25.859 96.511,28.068 96.321,30.273 C96.1601549,32.0702362 95.967792,33.8645123 95.744,35.655 C95.725,35.813 95.689,35.968 95.661,36.125 L88.074,36.124 C87.898,36.124 87.722,36.126 87.547,36.127 C87.512,36.004 87.533,35.883 87.55,35.759 C87.604,35.374 87.658,34.989 87.698,34.602 C87.83,33.317 87.963,32.032 88.063,30.745 C88.205,28.909 88.305,27.072 88.336,25.232 C88.368,23.338 88.371,21.445 88.271,19.552 C88.211,18.421 88.128,17.292 88.034,16.164 C88.011,15.89 87.889,15.758 87.654,15.666 C87.128,15.461 86.61,15.234 86.084,15.031 C79.44,12.481 72.586,10.71 65.582,9.505 C63.4955709,9.14934061 61.399377,8.85355251 59.296,8.618 C57.541,8.419 55.785,8.251 54.024,8.143 C52.245,8.035 50.463,7.965 48.681,7.926 C46.421,7.878 44.161,7.886 41.903,8.005 C41.022,8.051 40.139,8.075 39.259,8.145 C37.571,8.275 35.884,8.422 34.201,8.625 C32.589,8.819 30.982,9.042 29.382,9.313 C26.4600974,9.80471401 23.5629046,10.4334068 20.7,11.197 C17.084,12.166 13.535,13.333 10.093,14.815 C9.445,15.094 8.811,15.406 8.169,15.699 C8.009,15.771 7.929,15.876 7.914,16.059 C7.86,16.711 7.78,17.361 7.73,18.014 C7.63,19.32 7.598,20.629 7.578,21.939 C7.54947479,23.6026274 7.57181856,25.2667382 7.645,26.929 C7.708,28.324 7.813,29.719 7.932,31.111 C8.033,32.291 8.188,33.467 8.306,34.646 C8.353,35.12 8.484,35.586 8.453,36.068" id="Path" fill="#D34316" fill-rule="nonzero" mask="url(#mask-2)"></path>
                </g>
            </g>
            <path d="M0.43,129.018 L0.464,128.982 C0.475,129.004 0.49,129.026 0.495,129.05 C0.497,129.06 0.475,129.073 0.465,129.084 L0.429,129.018 M80.703,23.327 C80.657,23.287 80.643,23.267 80.631,23.267 L77.985,23.252 C77.863,23.252 77.792,23.318 77.754,23.431 C77.72,23.531 77.679,23.629 77.641,23.728 C76.575,26.498 75.511,29.269 74.443,32.038 C73.871,33.522 73.276,34.997 72.808,36.518 C72.716,36.818 72.621,37.118 72.528,37.418 C72.374,37.375 72.371,37.261 72.341,37.16 C72.0904189,36.2761208 71.8041849,35.4027401 71.483,34.542 L68.273,26.181 C67.937,25.307 67.599,24.434 67.273,23.556 C67.196,23.351 67.105,23.24 66.86,23.2438955 C65.995,23.259 65.13,23.25 64.265,23.25 C64.196,23.25 64.123,23.2438955 64.064,23.326 C64.07,23.363 64.068,23.416 64.086,23.459 C66.815,30.112 69.545,36.763 72.276,43.414 C72.282,43.43 72.296,43.446 72.31,43.452 C72.324,43.457 72.344,43.45 72.362,43.448 C72.616,43.007 79.99,25.221 80.702,23.327 M34.599,38.174 C34.558,38.204 34.511,38.227 34.477,38.264 C33.9624871,38.7989 33.4498174,39.3355698 32.939,39.874 C32.77,40.053 32.772,40.077 32.944,40.268 C35.065,42.625 37.689,43.433 40.75,42.71 C42.524,42.29 43.862,41.237 44.664,39.568 C45.192,38.47 45.333,37.3 45.193,36.1 C45.043,34.823 44.436,33.798 43.418,33.017 C43.0841392,32.7553627 42.7262011,32.526001 42.349,32.332 C41.971,32.142 41.589,31.959 41.199,31.796 C40.305,31.42 39.404,31.06 38.507,30.691 C38.017,30.489 37.542,30.256 37.122,29.925 C36.768,29.645 36.49,29.308 36.337,28.879 C36.1065353,28.2479515 36.1365206,27.5511513 36.4203443,26.942234 C36.7041681,26.3333166 37.2185226,25.8622869 37.85,25.633 C38.495,25.398 39.16,25.367 39.834,25.463 C40.391,25.543 40.877,25.79 41.307,26.141 C41.663,26.431 42.002,26.741 42.346,27.046 C42.438,27.127 42.521,27.154 42.616,27.052 C43.143,26.48 43.671,25.909 44.2,25.34 C44.3,25.233 44.257,25.15 44.169,25.072 C43.863,24.804 43.565,24.528 43.247,24.274 C41.402,22.805 39.31,22.51 37.097,23.11 C35.232,23.615 34.04,24.867 33.536,26.754 C33.351,27.446 33.314,28.15 33.36,28.859 C33.431,29.961 33.84,30.915 34.625,31.701 C35.079,32.155 35.602,32.512 36.16,32.822 C36.778,33.166 37.432,33.43 38.092,33.682 C38.75,33.934 39.411,34.181 40.068,34.438 C40.632,34.658 41.148,34.961 41.578,35.394 C42.13,35.949 42.411,36.612 42.368,37.403 C42.324,38.221 41.99,38.904 41.394,39.456 C40.76,40.043 39.998,40.336 39.144,40.394 C38.084,40.466 37.119,40.181 36.238,39.594 C35.7714318,39.2741135 35.3403252,38.9053598 34.952,38.494 C34.843,38.382 34.762,38.237 34.599,38.174 M48.929,32.866 L48.929,41.836 C48.929,41.977 48.927,42.119 48.931,42.26 C48.938,42.489 48.958,42.51 49.165,42.518 C49.288,42.5231019 49.412,42.52 49.535,42.52 C51.212,42.52 52.889,42.515 54.565,42.5231019 C55.327,42.526 56.082,42.463 56.825,42.302 C59.805,41.651 61.949,39.962 63.153,37.127 C63.6,36.077 63.82,34.973 63.912,33.837 C64.0326238,32.4589659 63.9059654,31.0704652 63.538,29.737 C62.733,26.867 60.943,24.885 58.133,23.864 C56.962,23.439 55.743,23.256 54.499,23.252 C52.787,23.247 51.075,23.252 49.363,23.252 C49.275,23.252 49.187,23.252 49.099,23.256 C48.998,23.261 48.936,23.313 48.935,23.419 C48.932,23.579 48.93,23.738 48.93,23.897 L48.93,32.867 M61.88,88.202 C61.343,88.697 60.785,89.167 60.179,89.576 C60.173,89.364 60.162,89.152 60.162,88.94 L60.162,79.433 L60.161,60.846 C60.161,60.669 60.156,60.492 60.145,60.316 C60.1434099,60.2415578 60.0834422,60.1815901 60.009,60.18 C59.8858671,60.171031 59.7624586,60.1663615 59.639,60.166 L57.891,60.166 C57.246,60.166 57.301,60.122 57.301,60.778 L57.301,91.156 C57.301,91.35 57.319,91.544 57.327,91.738 C57.317,91.752 57.308,91.768 57.296,91.779 C57.1,91.951 56.906,92.179 56.658,92.206 C56.422,92.232 56.25,91.975 56.052,91.842 C55.894,91.736 55.752,91.607 55.603,91.489 C55.606,91.329 55.613,91.171 55.613,91.012 L55.613,52.84 C55.613,52.716 55.616,52.592 55.611,52.468 C55.601,52.238 55.565,52.197 55.324,52.194 C54.724,52.189 54.124,52.188 53.524,52.193 C52.648,52.2 52.754,52.077 52.754,52.94 C52.752,64.815 52.753,76.69 52.752,88.564 C52.752,88.811 52.742,89.059 52.738,89.306 C52.1495871,88.898348 51.5902376,88.4502669 51.064,87.965 C51.068,87.859 51.074,87.753 51.074,87.647 L51.074,50.92 C51.074,50.814 51.077,50.708 51.073,50.602 C51.063,50.326 51.035,50.29 50.771,50.287 C50.171,50.282 49.571,50.281 48.971,50.286 C48.113,50.293 48.218,50.174 48.218,51.05 C48.216,62.284 48.217,73.518 48.216,84.751 C48.216,84.999 48.201,85.246 48.193,85.493 C47.5952961,85.0074841 47.0266486,84.4872535 46.49,83.935 C46.493,83.882 46.498,83.829 46.498,83.776 L46.498,57.72 L46.497,57.454 C46.487,57.101 46.48,57.087 46.145,57.084 C45.545,57.079 44.945,57.08 44.345,57.084 C43.549,57.088 43.638,56.994 43.638,57.787 C43.636,65.323 43.637,72.859 43.636,80.395 C43.636,80.625 43.626,80.854 43.621,81.085 C43.184,80.731 42.828,80.297 42.444,79.892 C42.239,79.677 42.017,79.475 41.861,79.218 C41.954,78.996 41.915,78.763 41.915,78.535 C41.917,73.245 41.917,67.956 41.916,62.667 C41.916,62.525 41.92,62.384 41.912,62.243 C41.9,62.049 41.848,61.989 41.649,61.987 C40.873,61.981 40.097,61.984 39.32,61.984 L39.267,61.987 C39.144,61.994 39.07,62.06 39.064,62.183 C39.056,62.342 39.057,62.501 39.057,62.66 L39.057,75.185 L39.055,75.663 C39.055,75.753 39.039,75.838 38.971,75.906 C38.385,75.228 37.812,74.54 37.308,73.797 C37.388,73.61 37.359,73.413 37.359,73.22 C37.361,66.939 37.361,60.657 37.361,54.376 C37.361,54.287 37.362,54.199 37.36,54.11 C37.35,53.799 37.33,53.77 37.032,53.768 C36.414,53.764 35.796,53.764 35.178,53.768 C34.424,53.772 34.502,53.682 34.502,54.449 C34.5,59.351 34.501,64.252 34.501,69.154 C34.501,69.313 34.506,69.473 34.495,69.631 C34.49,69.696 34.45,69.759 34.425,69.823 C33.8341726,69.0046784 33.2841678,68.1576443 32.777,67.285 C32.787,67.162 32.803,67.039 32.803,66.916 C32.805,63.926 32.805,60.936 32.805,57.946 C32.805,57.84 32.805,57.733 32.796,57.628 C32.788,57.528 32.728,57.463 32.63,57.451 C32.5073978,57.4386666 32.3842169,57.4329916 32.261,57.434 C31.697,57.432 31.131,57.434 30.567,57.433 C29.877,57.433 29.947,57.4 29.945,58.071 C29.943,59.274 29.947,60.477 29.942,61.68 C29.942,61.85 29.996,62.036 29.865,62.189 C29.604,61.688 29.336,61.19 29.083,60.685 C28.2584725,59.0226346 27.4969313,57.3297649 26.8,55.61 C25.075,51.395 23.809,47.04 22.85,42.591 C22.389198,40.447369 22.0155574,38.2859248 21.73,36.112 C21.527916,34.5507326 21.3695208,32.9841206 21.255,31.414 C21.075,29.029 21.031,26.642 21.068,24.252 C21.088,22.906 21.183,21.565 21.301,20.225 C21.361,19.55 21.367,19.548 21.987,19.256 C24.323,18.158 26.738,17.271 29.197,16.5 C32.3786891,15.5050828 35.6206053,14.7141435 38.903,14.132 C40.8486739,13.7884802 42.8046335,13.5060083 44.768,13.285 C49.075,12.795 53.395,12.686 57.722,12.806 C59.68,12.86 61.635,12.992 63.587,13.174 C70.9177997,13.85237 78.1480079,15.3600053 85.139,17.668 C86.6646544,18.1661719 88.1698488,18.7249486 89.651,19.343 C89.749,19.383 89.844,19.432 89.944,19.464 C90.102,19.515 90.157,19.626 90.17,19.783 C90.226,20.453 90.303,21.121 90.346,21.792 C90.466,23.682 90.494,25.576 90.456,27.47 C90.4190285,29.2570784 90.3269848,31.0425928 90.18,32.824 C90.0614346,34.3052451 89.9037128,35.7830951 89.707,37.256 C89.4136597,39.4290657 89.0400712,41.5905422 88.587,43.736 C87.845,47.251 86.9,50.71 85.702,54.096 C84.9765544,56.1449487 84.1634724,58.1618059 83.265,60.141 C83.236,60.204 83.195,60.261 83.159,60.322 C83.146,60.094 83.122,59.865 83.121,59.636 C83.118,58.223 83.12,56.811 83.119,55.398 C83.119,55.257 83.123,55.115 83.115,54.974 C83.105,54.781 83.059,54.734 82.85,54.733 C82.145,54.728 81.44,54.728 80.736,54.731 C80.272,54.732 80.272,54.736 80.266,55.198 L80.266,65.529 C80.266,65.686 80.283,65.844 80.292,66.002 C80.234,66.13 80.186,66.264 80.116,66.385 C79.608,67.254 79.096,68.119 78.586,68.985 C78.426,68.802 78.498,68.58 78.497,68.377 C78.493,63.333 78.494,58.289 78.494,53.245 C78.494,53.085 78.497,52.926 78.491,52.767 C78.483,52.53 78.451,52.493 78.209,52.491 C77.556,52.486 76.902,52.487 76.249,52.489 C75.569,52.492 75.635,52.425 75.634,53.126 L75.635,72.771 C75.635,72.965 75.652,73.159 75.662,73.352 C75.59,73.471 75.528,73.596 75.447,73.707 C75.015,74.297 74.58,74.884 74.141,75.469 C74.059,75.579 73.954,75.671 73.859,75.771 C73.856,75.541 73.849,75.311 73.849,75.081 L73.849,58.04 C73.849,57.88 73.853,57.721 73.846,57.562 C73.836,57.335 73.799,57.295 73.554,57.293 C72.919,57.288 72.284,57.289 71.648,57.291 C70.926,57.294 70.988,57.218 70.988,57.939 L70.988,78.749 C70.988,78.927 70.998,79.103 71.004,79.279 C70.5045273,79.9133532 69.9640368,80.5143065 69.386,81.078 C69.376,80.831 69.359,80.583 69.359,80.336 C69.357,74.706 69.358,69.077 69.357,63.448 C69.357,63.288 69.361,63.129 69.355,62.97 C69.346,62.733 69.309,62.69 69.075,62.688 C68.439,62.683 67.803,62.683 67.168,62.686 C66.42,62.69 66.498,62.606 66.498,63.376 L66.498,83.292 C66.498,83.54 66.505,83.787 66.508,84.035 C65.945,84.613 65.382,85.193 64.738,85.685 C64.735,85.473 64.728,85.261 64.728,85.048 L64.728,75.276 L64.728,56.051 C64.728,55.874 64.723,55.697 64.714,55.521 C64.71,55.445 64.664,55.388 64.584,55.38 C64.4789602,55.3700472 64.3735103,55.3650416 64.268,55.365 C63.703,55.363 63.138,55.361 62.572,55.365 C61.777,55.37 61.869,55.275 61.869,56.073 C61.867,66.57 61.867,77.068 61.868,87.565 C61.868,87.778 61.876,87.99 61.88,88.202" id="Shape" fill="#011258" fill-rule="nonzero"></path>
            <path d="M52.737,89.306 C52.742,89.059 52.751,88.811 52.751,88.564 C52.751,76.689 52.751,64.814 52.753,52.94 C52.753,52.077 52.647,52.2 53.523,52.193 C54.123,52.187 54.723,52.1892998 55.323,52.194 C55.563,52.197 55.6,52.237 55.61,52.468 C55.615,52.592 55.612,52.716 55.612,52.84 L55.612,91.012 C55.612,91.171 55.605,91.33 55.602,91.489 C55.297,91.349 55.056,91.117 54.79,90.921 C54.215,90.496 53.649,90.058 53.083,89.621 C52.96,89.525 52.852,89.411 52.737,89.306 M48.192,85.493 C48.2,85.246 48.215,84.999 48.215,84.751 C48.215,73.518 48.215,62.284 48.217,51.051 C48.217,50.174 48.112,50.293 48.971,50.286 C49.571,50.281 50.171,50.282 50.771,50.287 C51.034,50.29 51.061,50.326 51.071,50.602 C51.076,50.708 51.073,50.814 51.073,50.92 L51.073,87.647 C51.073,87.753 51.067,87.859 51.063,87.965 C50.593,87.654 50.186,87.265 49.76,86.899 C49.227,86.442 48.672,86.009 48.192,85.493 M61.88,88.202 C61.876,87.99 61.868,87.778 61.868,87.566 L61.868,56.073 C61.868,55.275 61.778,55.37 62.572,55.365 C63.138,55.361 63.702,55.3626906 64.268,55.365 C64.373,55.365 64.479,55.37 64.584,55.38 C64.664,55.388 64.71,55.445 64.714,55.521 C64.723,55.698 64.728,55.874 64.728,56.051 L64.728,85.048 C64.728,85.261 64.735,85.473 64.738,85.685 C64.709,85.727 64.685,85.775 64.648,85.81 C63.77976,86.618694 62.8873553,87.4010488 61.972,88.156 C61.946,88.178 61.911,88.187 61.88,88.202 M57.326,91.738 C57.317,91.544 57.301,91.35 57.301,91.156 L57.301,60.778 C57.301,60.122 57.245,60.166 57.89,60.166 L59.638,60.166 C59.761,60.166 59.885,60.171 60.008,60.18 C60.088,60.186 60.139,60.24 60.144,60.316 C60.155,60.492 60.16,60.669 60.16,60.846 L60.16,79.433 L60.161,88.94 C60.161,89.152 60.172,89.364 60.178,89.577 C60.068,89.768 59.868,89.859 59.704,89.987 C59.022,90.515 58.331,91.032 57.64,91.55 C57.543,91.622 57.431,91.676 57.326,91.738 M43.62,81.084 C43.625,80.854 43.635,80.624 43.635,80.394 C43.636,72.859 43.635,65.324 43.637,57.787 C43.637,56.994 43.547,57.088 44.344,57.083 C44.944,57.08 45.544,57.08 46.144,57.084 C46.479,57.087 46.487,57.101 46.495,57.454 C46.498,57.543 46.496,57.631 46.496,57.72 L46.497,83.776 C46.497,83.829 46.492,83.882 46.489,83.935 C46.433,83.895 46.37,83.861 46.321,83.813 C45.484,82.986 44.648,82.158 43.812,81.328 C43.739,81.255 43.649,81.193 43.62,81.084 M71.004,79.28 C70.999,79.103 70.989,78.927 70.989,78.75 L70.989,57.94 C70.989,57.218 70.926,57.293 71.648,57.29 C72.284,57.2890312 72.919,57.288 73.555,57.293 C73.799,57.295 73.837,57.335 73.846,57.563 C73.853,57.721 73.849,57.881 73.849,58.04 L73.849,75.08 C73.849,75.31 73.856,75.54 73.859,75.77 C73.829,75.833 73.811,75.904 73.769,75.957 C72.9162954,77.0547783 72.0343118,78.1294978 71.124,79.18 C71.09,79.219 71.044,79.246 71.004,79.279 M66.509,84.035 C66.505,83.787 66.498,83.54 66.498,83.292 L66.498,63.377 C66.498,62.605 66.419,62.69 67.168,62.687 C67.803,62.683 68.439,62.683 69.075,62.688 C69.309,62.69 69.346,62.733 69.355,62.97 C69.361,63.13 69.357,63.289 69.357,63.448 C69.357,69.078 69.357,74.707 69.359,80.336 C69.359,80.584 69.377,80.831 69.386,81.078 C69.072,81.521 68.663,81.878 68.297,82.273 C67.774,82.837 67.219,83.369 66.676,83.913 C66.627,83.961 66.564,83.994 66.509,84.035 M75.662,73.352 C75.652,73.159 75.635,72.965 75.635,72.771 C75.633,66.223 75.633,59.675 75.635,53.126 C75.635,52.426 75.569,52.492 76.249,52.489 C76.902,52.487 77.555,52.486 78.209,52.491 C78.452,52.493 78.483,52.53 78.492,52.767 C78.497,52.927 78.494,53.086 78.494,53.245 C78.494,58.289 78.494,63.333 78.497,68.376 C78.497,68.58 78.425,68.802 78.587,68.986 C77.747,70.387 76.837,71.741 75.902,73.078 C75.832,73.178 75.742,73.261 75.662,73.352 M34.425,69.823 C34.449,69.759 34.489,69.696 34.494,69.631 C34.504,69.472 34.5,69.313 34.5,69.154 L34.5,54.449 C34.501,53.682 34.423,53.772 35.177,53.767 C35.7949945,53.7629231 36.4130102,53.7632564 37.031,53.768 C37.328,53.771 37.349,53.798 37.359,54.11 C37.361,54.198 37.359,54.287 37.359,54.375 L37.359,73.22 C37.359,73.413 37.386,73.61 37.307,73.797 C37.003,73.523 36.791,73.174 36.553,72.848 C35.856,71.893 35.175,70.927 34.489,69.964 C34.459,69.922 34.446,69.87 34.425,69.824 M38.97,75.905 C39.038,75.838 39.053,75.753 39.054,75.663 L39.055,75.185 L39.055,62.66 C39.055,62.501 39.055,62.342 39.063,62.183 C39.069,62.06 39.143,61.994 39.266,61.987 L39.319,61.984 C40.096,61.984 40.872,61.981 41.649,61.987 C41.847,61.988 41.899,62.049 41.911,62.243 C41.919,62.383 41.915,62.525 41.915,62.667 C41.915,67.957 41.916,73.246 41.914,78.535 C41.914,78.763 41.953,78.996 41.86,79.218 C41.614,79.045 41.432,78.808 41.238,78.584 C40.503,77.739 39.778,76.886 39.05,76.035 C39.018,75.997 38.997,75.949 38.97,75.905 M80.292,66.002 C80.283,65.844 80.267,65.686 80.267,65.528 C80.265,62.138 80.266,58.748 80.266,55.357 L80.266,55.197 C80.272,54.736 80.272,54.733 80.736,54.731 C81.441,54.728 82.146,54.728 82.85,54.733 C83.06,54.733 83.105,54.781 83.115,54.974 C83.123,55.115 83.119,55.256 83.119,55.398 C83.119,56.811 83.118,58.223 83.121,59.636 C83.121,59.865 83.146,60.093 83.159,60.322 C83.163,60.491 83.054,60.617 82.989,60.757 C82.2154171,62.4334693 81.3849353,64.0830931 80.499,65.703 C80.44,65.809 80.403,65.932 80.292,66.003 M29.864,62.189 C29.995,62.036 29.941,61.851 29.941,61.679 C29.946,60.477 29.942,59.273 29.944,58.07 C29.945,57.4 29.875,57.433 30.566,57.433 L32.26,57.433 C32.383,57.434 32.507,57.438 32.63,57.452 C32.727,57.462 32.787,57.528 32.795,57.628 C32.803,57.733 32.804,57.84 32.804,57.946 L32.803,66.916 C32.803,67.039 32.785,67.162 32.776,67.285 C32.25,66.531 31.804,65.728 31.347,64.933 C30.846,64.059 30.367,63.173 29.881,62.291 C29.865,62.262 29.869,62.223 29.864,62.189" id="Shape" fill="#39ACDD" fill-rule="nonzero"></path>
            <path d="M51.727,32.887 L51.711,32.887 L51.711,39.889 C51.711,39.992 51.748,40.054 51.859,40.0530119 C52.565,40.046 53.27,40.0530119 53.975,40.028 C54.84,39.997 55.698,39.894 56.529,39.637 C58.697,38.965 60.149,37.564 60.763,35.36 C61.1981393,33.837514 61.2140322,32.2257706 60.809,30.695 C60.241,28.541 58.898,27.073 56.827,26.279 C55.88,25.916 54.89,25.755 53.877,25.739 C53.313,25.731 52.748,25.736 52.184,25.736 C52.044,25.736 51.868,25.689 51.774,25.756 C51.633,25.854 51.73,26.05 51.73,26.202 C51.726,28.431 51.727,30.659 51.727,32.887 L51.727,32.887 Z M48.929,32.867 L48.929,23.897 C48.929,23.737 48.931,23.579 48.933,23.419 C48.935,23.313 48.997,23.261 49.098,23.256 C49.186,23.251 49.274,23.251 49.362,23.251 C51.074,23.251 52.786,23.248 54.498,23.252 C55.742,23.256 56.96,23.439 58.132,23.864 C60.942,24.884 62.732,26.867 63.538,29.737 C63.913,31.074 64.023,32.445 63.911,33.837 C63.819,34.973 63.599,36.077 63.152,37.127 C61.948,39.961 59.805,41.65 56.824,42.302 C56.081,42.464 55.326,42.526 54.564,42.5221809 C52.887,42.515 51.211,42.52 49.534,42.52 C49.411,42.52 49.287,42.523 49.164,42.519 C48.957,42.511 48.937,42.489 48.93,42.26 C48.926,42.119 48.929,41.977 48.929,41.836 L48.929,32.866 L48.929,32.867 Z M34.598,38.174 C34.762,38.237 34.842,38.382 34.951,38.494 C35.346,38.901 35.764,39.28 36.237,39.594 C37.118,40.181 38.082,40.466 39.142,40.394 C39.997,40.336 40.759,40.044 41.393,39.456 C41.989,38.904 42.323,38.221 42.367,37.403 C42.409,36.613 42.129,35.949 41.577,35.394 C41.147,34.962 40.631,34.659 40.067,34.438 C39.41,34.181 38.749,33.934 38.091,33.682 C37.431,33.43 36.777,33.166 36.158,32.822 C35.601,32.512 35.078,32.155 34.624,31.701 C33.839,30.915 33.43,29.961 33.359,28.86 C33.313,28.15 33.35,27.446 33.535,26.754 C34.039,24.867 35.231,23.615 37.095,23.11 C39.309,22.51 41.402,22.805 43.246,24.274 C43.564,24.528 43.862,24.804 44.168,25.072 C44.256,25.149 44.299,25.232 44.199,25.34 C43.669,25.909 43.142,26.48 42.614,27.052 C42.52,27.154 42.437,27.127 42.344,27.046 C42.001,26.741 41.662,26.431 41.306,26.141 C40.876,25.79 40.39,25.543 39.833,25.464 C39.159,25.367 38.493,25.398 37.849,25.634 C37.2177626,25.8632966 36.7035944,26.334164 36.4197927,26.9428463 C36.135991,27.5515287 36.105846,28.2480747 36.336,28.879 C36.489,29.308 36.767,29.645 37.121,29.925 C37.541,30.256 38.016,30.489 38.506,30.691 C39.403,31.061 40.304,31.421 41.198,31.795 C41.588,31.959 41.97,32.142 42.348,32.332 C42.728,32.522 43.08,32.758 43.418,33.017 C44.436,33.798 45.043,34.823 45.192,36.1 C45.332,37.3 45.192,38.47 44.663,39.568 C43.861,41.238 42.523,42.291 40.749,42.71 C37.688,43.433 35.064,42.625 32.943,40.268 C32.771,40.077 32.769,40.053 32.938,39.874 C33.448,39.335 33.962,38.799 34.476,38.264 C34.51,38.227 34.557,38.204 34.598,38.174 L34.598,38.174 Z M80.703,23.327 C79.99,25.221 72.616,43.007 72.362,43.447 C72.344,43.45 72.324,43.457 72.31,43.452 C72.295,43.446 72.282,43.43 72.276,43.414 C69.545,36.764 66.815,30.112 64.086,23.459 C64.068,23.415 64.07,23.363 64.064,23.326 C64.123,23.2438955 64.196,23.251 64.265,23.25 C65.13,23.25 65.995,23.259 66.86,23.2438955 C67.105,23.24 67.196,23.351 67.272,23.556 C67.599,24.434 67.937,25.306 68.272,26.181 C69.342,28.968 70.414,31.755 71.483,34.542 C71.813,35.401 72.083,36.279 72.341,37.16 C72.371,37.26 72.374,37.375 72.528,37.417 C72.621,37.119 72.716,36.819 72.808,36.519 C73.276,34.997 73.871,33.522 74.443,32.038 C75.511,29.269 76.575,26.498 77.641,23.728 C77.679,23.629 77.72,23.531 77.754,23.431 C77.792,23.318 77.863,23.251 77.984,23.252 C78.867,23.256 79.749,23.261 80.631,23.267 C80.644,23.267 80.657,23.287 80.703,23.327 L80.703,23.327 Z" id="Shape" fill="#FEFEFE" fill-rule="nonzero"></path>
            <path d="M51.727,32.887 C51.727,30.659 51.726,28.431 51.73,26.202 C51.73,26.05 51.633,25.854 51.773,25.756 C51.868,25.689 52.044,25.736 52.183,25.736 C52.748,25.736 53.313,25.731 53.877,25.739 C54.89,25.755 55.88,25.916 56.827,26.279 C58.897,27.073 60.241,28.541 60.809,30.695 C61.2140322,32.2257706 61.1981393,33.837514 60.763,35.36 C60.149,37.564 58.697,38.965 56.529,39.637 C55.698,39.894 54.84,39.997 53.975,40.027 C53.27,40.0530121 52.565,40.046 51.859,40.0530121 C51.749,40.054 51.71,39.993 51.71,39.889 L51.71,32.887 L51.727,32.887 L51.727,32.887 Z" id="Path" fill="#031459" fill-rule="nonzero"></path>
        </g>
    </g>
</svg>